<mxfile host="app.diagrams.net" modified="2023-03-21T02:50:10.728Z" agent="5.0 (Windows)" etag="ZboHz_XpexCCTmb1b74x" version="20.5.3" type="github">
  <diagram id="prtHgNgQTEPvFCAcTncT" name="Page-1">
    <mxGraphModel dx="640" dy="303" grid="1" gridSize="10" guides="1" tooltips="1" connect="1" arrows="1" fold="1" page="1" pageScale="1" pageWidth="827" pageHeight="1169" math="0" shadow="0">
      <root>
        <mxCell id="0" />
        <mxCell id="1" parent="0" />
        <mxCell id="dpMPxvlxTykies-16Fs4-3" value="" style="rounded=0;whiteSpace=wrap;html=1;dashed=1;" vertex="1" parent="1">
          <mxGeometry x="153" y="37" width="520" height="290" as="geometry" />
        </mxCell>
        <mxCell id="dpMPxvlxTykies-16Fs4-4" value="" style="rounded=0;whiteSpace=wrap;html=1;" vertex="1" parent="1">
          <mxGeometry x="180" y="190" width="200" height="100" as="geometry" />
        </mxCell>
        <mxCell id="dpMPxvlxTykies-16Fs4-6" value="" style="rounded=0;whiteSpace=wrap;html=1;" vertex="1" parent="1">
          <mxGeometry x="450" y="190" width="200" height="100" as="geometry" />
        </mxCell>
        <mxCell id="dpMPxvlxTykies-16Fs4-7" value="broker" style="rounded=1;whiteSpace=wrap;html=1;fillColor=#f8cecc;strokeColor=#b85450;" vertex="1" parent="1">
          <mxGeometry x="200" y="210" width="70" height="60" as="geometry" />
        </mxCell>
        <mxCell id="dpMPxvlxTykies-16Fs4-8" value="broker" style="rounded=1;whiteSpace=wrap;html=1;fillColor=#f8cecc;strokeColor=#b85450;" vertex="1" parent="1">
          <mxGeometry x="300" y="210" width="70" height="60" as="geometry" />
        </mxCell>
        <mxCell id="dpMPxvlxTykies-16Fs4-10" value="kafka集群1" style="text;html=1;strokeColor=none;fillColor=none;align=center;verticalAlign=middle;whiteSpace=wrap;rounded=0;" vertex="1" parent="1">
          <mxGeometry x="230" y="300" width="100" height="30" as="geometry" />
        </mxCell>
        <mxCell id="dpMPxvlxTykies-16Fs4-12" value="kafka集群N" style="text;html=1;strokeColor=none;fillColor=none;align=center;verticalAlign=middle;whiteSpace=wrap;rounded=0;" vertex="1" parent="1">
          <mxGeometry x="500" y="300" width="100" height="30" as="geometry" />
        </mxCell>
        <mxCell id="dpMPxvlxTykies-16Fs4-13" value="broker" style="rounded=1;whiteSpace=wrap;html=1;fillColor=#f8cecc;strokeColor=#b85450;" vertex="1" parent="1">
          <mxGeometry x="470" y="210" width="70" height="60" as="geometry" />
        </mxCell>
        <mxCell id="dpMPxvlxTykies-16Fs4-14" value="broker" style="rounded=1;whiteSpace=wrap;html=1;fillColor=#f8cecc;strokeColor=#b85450;" vertex="1" parent="1">
          <mxGeometry x="570" y="210" width="70" height="60" as="geometry" />
        </mxCell>
        <mxCell id="dpMPxvlxTykies-16Fs4-15" value="zookeeper" style="ellipse;shape=cloud;whiteSpace=wrap;html=1;" vertex="1" parent="1">
          <mxGeometry x="230" y="70" width="120" height="80" as="geometry" />
        </mxCell>
        <mxCell id="dpMPxvlxTykies-16Fs4-16" value="zookeeper" style="ellipse;shape=cloud;whiteSpace=wrap;html=1;" vertex="1" parent="1">
          <mxGeometry x="490" y="70" width="120" height="80" as="geometry" />
        </mxCell>
        <mxCell id="dpMPxvlxTykies-16Fs4-21" value="" style="endArrow=none;html=1;rounded=0;exitX=0.535;exitY=-0.03;exitDx=0;exitDy=0;exitPerimeter=0;entryX=0.467;entryY=1;entryDx=0;entryDy=0;entryPerimeter=0;startArrow=block;startFill=0;endFill=0;" edge="1" parent="1">
          <mxGeometry width="50" height="50" relative="1" as="geometry">
            <mxPoint x="281" y="187" as="sourcePoint" />
            <mxPoint x="280.03999999999996" y="150" as="targetPoint" />
          </mxGeometry>
        </mxCell>
        <mxCell id="dpMPxvlxTykies-16Fs4-22" value="" style="endArrow=block;html=1;rounded=0;exitX=0.66;exitY=-0.04;exitDx=0;exitDy=0;exitPerimeter=0;endFill=0;" edge="1" parent="1">
          <mxGeometry width="50" height="50" relative="1" as="geometry">
            <mxPoint x="306" y="186" as="sourcePoint" />
            <mxPoint x="304" y="150" as="targetPoint" />
          </mxGeometry>
        </mxCell>
        <mxCell id="dpMPxvlxTykies-16Fs4-23" value="" style="endArrow=block;html=1;rounded=0;exitX=0.535;exitY=-0.03;exitDx=0;exitDy=0;exitPerimeter=0;entryX=0.467;entryY=1;entryDx=0;entryDy=0;entryPerimeter=0;endFill=0;startArrow=none;startFill=0;" edge="1" parent="1">
          <mxGeometry width="50" height="50" relative="1" as="geometry">
            <mxPoint x="544" y="188" as="sourcePoint" />
            <mxPoint x="543.04" y="151" as="targetPoint" />
          </mxGeometry>
        </mxCell>
        <mxCell id="dpMPxvlxTykies-16Fs4-24" value="" style="endArrow=none;html=1;rounded=0;exitX=0.66;exitY=-0.04;exitDx=0;exitDy=0;exitPerimeter=0;startArrow=block;startFill=0;endFill=0;" edge="1" parent="1">
          <mxGeometry width="50" height="50" relative="1" as="geometry">
            <mxPoint x="569" y="187" as="sourcePoint" />
            <mxPoint x="567" y="151" as="targetPoint" />
          </mxGeometry>
        </mxCell>
        <mxCell id="dpMPxvlxTykies-16Fs4-26" value="。。。" style="text;html=1;strokeColor=none;fillColor=none;align=center;verticalAlign=middle;whiteSpace=wrap;rounded=0;" vertex="1" parent="1">
          <mxGeometry x="388" y="225" width="60" height="30" as="geometry" />
        </mxCell>
        <mxCell id="dpMPxvlxTykies-16Fs4-27" value="Kafka管理平台" style="rounded=0;whiteSpace=wrap;html=1;" vertex="1" parent="1">
          <mxGeometry x="318" y="392" width="200" height="80" as="geometry" />
        </mxCell>
        <mxCell id="dpMPxvlxTykies-16Fs4-31" value="" style="endArrow=classic;html=1;rounded=0;" edge="1" parent="1">
          <mxGeometry width="50" height="50" relative="1" as="geometry">
            <mxPoint x="472" y="389" as="sourcePoint" />
            <mxPoint x="510" y="339" as="targetPoint" />
          </mxGeometry>
        </mxCell>
        <mxCell id="dpMPxvlxTykies-16Fs4-32" value="" style="endArrow=classic;html=1;rounded=0;" edge="1" parent="1">
          <mxGeometry width="50" height="50" relative="1" as="geometry">
            <mxPoint x="363" y="389" as="sourcePoint" />
            <mxPoint x="310" y="340" as="targetPoint" />
          </mxGeometry>
        </mxCell>
        <mxCell id="dpMPxvlxTykies-16Fs4-33" value="管理集群" style="text;html=1;align=center;verticalAlign=middle;resizable=0;points=[];autosize=1;strokeColor=none;fillColor=none;" vertex="1" parent="1">
          <mxGeometry x="345" y="355" width="70" height="30" as="geometry" />
        </mxCell>
        <mxCell id="dpMPxvlxTykies-16Fs4-34" value="管理集群" style="text;html=1;align=center;verticalAlign=middle;resizable=0;points=[];autosize=1;strokeColor=none;fillColor=none;" vertex="1" parent="1">
          <mxGeometry x="490" y="355" width="70" height="30" as="geometry" />
        </mxCell>
      </root>
    </mxGraphModel>
  </diagram>
</mxfile>
